<mxfile host="app.diagrams.net" modified="2021-03-05T05:43:43.840Z" agent="5.0 (Windows NT 10.0; Win64; x64) AppleWebKit/537.36 (KHTML, like Gecko) Chrome/88.0.4324.190 Safari/537.36" etag="3p50inZjRc2eR6RE5OsF" version="14.4.4" type="github">
  <diagram id="C5RBs43oDa-KdzZeNtuy" name="Page-1">
    <mxGraphModel dx="4298" dy="3330" grid="1" gridSize="10" guides="1" tooltips="1" connect="1" arrows="1" fold="1" page="0" pageScale="1" pageWidth="827" pageHeight="1169" math="0" shadow="0">
      <root>
        <mxCell id="WIyWlLk6GJQsqaUBKTNV-0" />
        <mxCell id="WIyWlLk6GJQsqaUBKTNV-1" parent="WIyWlLk6GJQsqaUBKTNV-0" />
        <mxCell id="TTTQ2_IeN3se4pq6Z3mo-5" style="edgeStyle=orthogonalEdgeStyle;rounded=0;orthogonalLoop=1;jettySize=auto;html=1;fontSize=17;fontColor=#FF0000;" edge="1" parent="WIyWlLk6GJQsqaUBKTNV-1" source="TTTQ2_IeN3se4pq6Z3mo-1" target="TTTQ2_IeN3se4pq6Z3mo-6">
          <mxGeometry relative="1" as="geometry">
            <mxPoint x="-740" y="-100" as="targetPoint" />
          </mxGeometry>
        </mxCell>
        <mxCell id="TTTQ2_IeN3se4pq6Z3mo-1" value="&lt;div&gt;ugh morning already! what day is it anyways? I am never Drinking again! I think as the haze of consequences starts to clear.&amp;nbsp;&lt;/div&gt;&lt;div&gt;Like a splash of cold water my consciousness catches up to my senses.. &quot;Where the hell am I? Why is it Dark and am I moving?&quot;&lt;/div&gt;&lt;div&gt;I see the glow of a trunk release&amp;nbsp;&amp;nbsp;&lt;/div&gt;&lt;div&gt;&lt;br&gt;&lt;/div&gt;&lt;div&gt;1. make as much racket as possible, hoping someone wants to play hero?&lt;/div&gt;&lt;div&gt;&lt;br&gt;&lt;/div&gt;&lt;div&gt;2. Pull that trunk release , close your eyes and jump?&amp;nbsp;&lt;/div&gt;" style="whiteSpace=wrap;html=1;aspect=fixed;overflow=visible;fillColor=#d5e8d4;strokeColor=#82b366;strokeWidth=5;" vertex="1" parent="WIyWlLk6GJQsqaUBKTNV-1">
          <mxGeometry x="-1170" y="150" width="260" height="260" as="geometry" />
        </mxCell>
        <mxCell id="TTTQ2_IeN3se4pq6Z3mo-4" value="&lt;font style=&quot;font-size: 17px&quot;&gt;&lt;span style=&quot;font-size: 17px&quot;&gt;start&lt;br&gt;&lt;/span&gt;&lt;/font&gt;" style="text;html=1;align=center;verticalAlign=middle;resizable=0;points=[];autosize=1;fontColor=#FF0000;fontStyle=1;fontSize=17;" vertex="1" parent="WIyWlLk6GJQsqaUBKTNV-1">
          <mxGeometry x="-1060" y="110" width="50" height="30" as="geometry" />
        </mxCell>
        <mxCell id="TTTQ2_IeN3se4pq6Z3mo-16" style="edgeStyle=orthogonalEdgeStyle;rounded=0;orthogonalLoop=1;jettySize=auto;html=1;exitX=1;exitY=0.5;exitDx=0;exitDy=0;fontSize=17;fontColor=#FF0000;" edge="1" parent="WIyWlLk6GJQsqaUBKTNV-1" source="TTTQ2_IeN3se4pq6Z3mo-6" target="TTTQ2_IeN3se4pq6Z3mo-15">
          <mxGeometry relative="1" as="geometry">
            <mxPoint x="-460" y="80" as="targetPoint" />
          </mxGeometry>
        </mxCell>
        <mxCell id="TTTQ2_IeN3se4pq6Z3mo-6" value="the car starts to slow, you look around for objects to defend yourself.&lt;br&gt;No Luck. You hear the door slam.&lt;br&gt;&lt;div&gt;&lt;span&gt;What&#39;s my next move?&amp;nbsp;&lt;/span&gt;&lt;/div&gt;&lt;div&gt;&lt;span&gt;&lt;br&gt;&lt;/span&gt;&lt;/div&gt;&lt;div&gt;&lt;span&gt;1. Pull the release and run for it&lt;/span&gt;&lt;/div&gt;&lt;div&gt;&lt;span&gt;(I should have a little head start)&lt;/span&gt;&lt;/div&gt;&lt;div&gt;&lt;span&gt;&lt;br&gt;&lt;/span&gt;&lt;/div&gt;&lt;div&gt;&lt;span&gt;2. Wait and ambush him as soon as he opens the trunk&lt;/span&gt;&lt;/div&gt;&lt;div&gt;&lt;span&gt;(hopefully I catch him off guard)&lt;/span&gt;&lt;/div&gt;" style="rounded=1;whiteSpace=wrap;html=1;align=center;fillColor=#dae8fc;strokeColor=#6c8ebf;glass=0;sketch=0;shadow=0;autosize=1;" vertex="1" parent="WIyWlLk6GJQsqaUBKTNV-1">
          <mxGeometry x="-800" y="-220" width="410" height="150" as="geometry" />
        </mxCell>
        <mxCell id="TTTQ2_IeN3se4pq6Z3mo-7" value="Room 1" style="text;html=1;align=center;verticalAlign=middle;resizable=0;points=[];autosize=1;fontSize=17;fontColor=#FF0000;" vertex="1" parent="WIyWlLk6GJQsqaUBKTNV-1">
          <mxGeometry x="-630" y="-260" width="70" height="30" as="geometry" />
        </mxCell>
        <mxCell id="TTTQ2_IeN3se4pq6Z3mo-43" style="edgeStyle=orthogonalEdgeStyle;rounded=0;orthogonalLoop=1;jettySize=auto;html=1;entryX=0;entryY=0.75;entryDx=0;entryDy=0;fontSize=17;fontColor=#FF0000;" edge="1" parent="WIyWlLk6GJQsqaUBKTNV-1" source="TTTQ2_IeN3se4pq6Z3mo-8" target="TTTQ2_IeN3se4pq6Z3mo-42">
          <mxGeometry relative="1" as="geometry" />
        </mxCell>
        <mxCell id="TTTQ2_IeN3se4pq6Z3mo-45" style="edgeStyle=orthogonalEdgeStyle;rounded=0;orthogonalLoop=1;jettySize=auto;html=1;fontSize=17;fontColor=#FF0000;" edge="1" parent="WIyWlLk6GJQsqaUBKTNV-1" source="TTTQ2_IeN3se4pq6Z3mo-8" target="TTTQ2_IeN3se4pq6Z3mo-44">
          <mxGeometry relative="1" as="geometry" />
        </mxCell>
        <mxCell id="TTTQ2_IeN3se4pq6Z3mo-8" value="&lt;font color=&quot;#000000&quot; style=&quot;font-size: 12px&quot;&gt;&lt;span style=&quot;font-size: 12px&quot;&gt;here goes nothing I leap, roll and scream a sharp pain!&lt;/span&gt;&lt;br&gt;&lt;span style=&quot;font-size: 12px&quot;&gt;I feel my shoulder explode while my arm falls limp.&lt;/span&gt;&lt;br&gt;&lt;span&gt;I get back to my feet as I hear the breaks screech&amp;nbsp;to a holt.&amp;nbsp;&lt;br&gt;&lt;/span&gt;&lt;br&gt;I need to run but where?&lt;br&gt;&lt;br&gt;1. the forest to the right.&lt;br&gt;2. off a cliff into a river on the left&lt;br&gt;&lt;br&gt;&lt;br&gt;&lt;br&gt;&lt;/font&gt;" style="rounded=1;whiteSpace=wrap;html=1;shadow=0;glass=0;sketch=0;strokeWidth=2;fontSize=17;autosize=1;labelPosition=center;verticalLabelPosition=middle;align=center;verticalAlign=middle;textDirection=ltr;fillColor=#dae8fc;strokeColor=#6c8ebf;" vertex="1" parent="WIyWlLk6GJQsqaUBKTNV-1">
          <mxGeometry x="-760" y="605" width="330" height="250" as="geometry" />
        </mxCell>
        <mxCell id="TTTQ2_IeN3se4pq6Z3mo-11" value="" style="endArrow=none;html=1;fontSize=17;fontColor=#FF0000;exitX=0.5;exitY=0;exitDx=0;exitDy=0;" edge="1" parent="WIyWlLk6GJQsqaUBKTNV-1" source="TTTQ2_IeN3se4pq6Z3mo-8">
          <mxGeometry width="50" height="50" relative="1" as="geometry">
            <mxPoint x="-620" y="470" as="sourcePoint" />
            <mxPoint x="-595" y="280" as="targetPoint" />
          </mxGeometry>
        </mxCell>
        <mxCell id="TTTQ2_IeN3se4pq6Z3mo-12" value="room 2&lt;br&gt;" style="text;html=1;align=center;verticalAlign=middle;resizable=0;points=[];autosize=1;fontSize=17;fontColor=#FF0000;" vertex="1" parent="WIyWlLk6GJQsqaUBKTNV-1">
          <mxGeometry x="-715" y="535" width="70" height="30" as="geometry" />
        </mxCell>
        <mxCell id="TTTQ2_IeN3se4pq6Z3mo-25" style="edgeStyle=orthogonalEdgeStyle;rounded=0;orthogonalLoop=1;jettySize=auto;html=1;entryX=0;entryY=0.5;entryDx=0;entryDy=0;fontSize=17;fontColor=#FF0000;" edge="1" parent="WIyWlLk6GJQsqaUBKTNV-1" source="TTTQ2_IeN3se4pq6Z3mo-13">
          <mxGeometry relative="1" as="geometry">
            <mxPoint x="810" y="-280" as="targetPoint" />
          </mxGeometry>
        </mxCell>
        <mxCell id="TTTQ2_IeN3se4pq6Z3mo-26" style="edgeStyle=orthogonalEdgeStyle;rounded=0;orthogonalLoop=1;jettySize=auto;html=1;entryX=0;entryY=0.25;entryDx=0;entryDy=0;fontSize=17;fontColor=#FF0000;" edge="1" parent="WIyWlLk6GJQsqaUBKTNV-1" source="TTTQ2_IeN3se4pq6Z3mo-13" target="TTTQ2_IeN3se4pq6Z3mo-20">
          <mxGeometry relative="1" as="geometry" />
        </mxCell>
        <mxCell id="TTTQ2_IeN3se4pq6Z3mo-13" value="&amp;nbsp;quickly pull the lever and stumble out the trunk and start sprinting.&lt;br&gt;He&#39;s right on my heels and closing the gap.&lt;br&gt;&lt;br&gt;1. Go for a hip check, use his momentum as a weapon.&lt;br&gt;2.Keep running, bet on yourself&lt;br&gt;" style="rounded=1;whiteSpace=wrap;html=1;shadow=0;glass=0;sketch=0;strokeWidth=2;fontSize=17;fillColor=#dae8fc;strokeColor=#6c8ebf;autosize=1;" vertex="1" parent="WIyWlLk6GJQsqaUBKTNV-1">
          <mxGeometry x="-47" y="-400" width="510" height="110" as="geometry" />
        </mxCell>
        <mxCell id="TTTQ2_IeN3se4pq6Z3mo-14" value="" style="endArrow=none;html=1;fontSize=17;fontColor=#FF0000;exitX=1;exitY=0.25;exitDx=0;exitDy=0;entryX=0;entryY=0.5;entryDx=0;entryDy=0;" edge="1" parent="WIyWlLk6GJQsqaUBKTNV-1" source="TTTQ2_IeN3se4pq6Z3mo-6" target="TTTQ2_IeN3se4pq6Z3mo-13">
          <mxGeometry width="50" height="50" relative="1" as="geometry">
            <mxPoint x="-30" y="490" as="sourcePoint" />
            <mxPoint x="20" y="440" as="targetPoint" />
            <Array as="points">
              <mxPoint x="-280" y="-345" />
            </Array>
          </mxGeometry>
        </mxCell>
        <mxCell id="TTTQ2_IeN3se4pq6Z3mo-17" style="edgeStyle=orthogonalEdgeStyle;rounded=0;orthogonalLoop=1;jettySize=auto;html=1;fontSize=17;fontColor=#FF0000;" edge="1" parent="WIyWlLk6GJQsqaUBKTNV-1" target="TTTQ2_IeN3se4pq6Z3mo-1">
          <mxGeometry relative="1" as="geometry">
            <mxPoint x="-120" y="20" as="sourcePoint" />
          </mxGeometry>
        </mxCell>
        <mxCell id="TTTQ2_IeN3se4pq6Z3mo-72" style="edgeStyle=orthogonalEdgeStyle;rounded=0;orthogonalLoop=1;jettySize=auto;html=1;fontSize=17;fontColor=#FF0000;" edge="1" parent="WIyWlLk6GJQsqaUBKTNV-1" source="TTTQ2_IeN3se4pq6Z3mo-15" target="TTTQ2_IeN3se4pq6Z3mo-71">
          <mxGeometry relative="1" as="geometry" />
        </mxCell>
        <mxCell id="TTTQ2_IeN3se4pq6Z3mo-15" value="I crouch waiting coiled like a snake ready to strike.&lt;br&gt;Trunk starts to open I explode out.&lt;br&gt;he&#39;s back 2ft waiting cloth in hand.&lt;br&gt;didn&#39;t think that one throu......&lt;br&gt;&lt;br&gt;1. Wake up&amp;nbsp;" style="rounded=0;whiteSpace=wrap;html=1;shadow=0;glass=0;sketch=0;strokeWidth=2;fontSize=17;fillColor=#fff2cc;strokeColor=#d6b656;" vertex="1" parent="WIyWlLk6GJQsqaUBKTNV-1">
          <mxGeometry x="-110" y="-130" width="750" height="159" as="geometry" />
        </mxCell>
        <mxCell id="TTTQ2_IeN3se4pq6Z3mo-18" value="Confritation 1" style="text;html=1;align=center;verticalAlign=middle;resizable=0;points=[];autosize=1;fontSize=17;fontColor=#FF0000;" vertex="1" parent="WIyWlLk6GJQsqaUBKTNV-1">
          <mxGeometry x="90" y="-445" width="120" height="30" as="geometry" />
        </mxCell>
        <mxCell id="TTTQ2_IeN3se4pq6Z3mo-30" style="edgeStyle=orthogonalEdgeStyle;rounded=0;orthogonalLoop=1;jettySize=auto;html=1;entryX=0;entryY=0.75;entryDx=0;entryDy=0;fontSize=17;fontColor=#FF0000;" edge="1" parent="WIyWlLk6GJQsqaUBKTNV-1" source="TTTQ2_IeN3se4pq6Z3mo-20" target="TTTQ2_IeN3se4pq6Z3mo-29">
          <mxGeometry relative="1" as="geometry" />
        </mxCell>
        <mxCell id="TTTQ2_IeN3se4pq6Z3mo-20" value="It worked!?!?!?&amp;nbsp; NHL bought me time but I am not out of the woods.&lt;br&gt;&lt;br&gt;1. continue&amp;nbsp;&amp;nbsp;" style="rounded=0;whiteSpace=wrap;html=1;shadow=0;glass=0;sketch=0;strokeWidth=2;fontSize=17;fillColor=#dae8fc;strokeColor=#6c8ebf;" vertex="1" parent="WIyWlLk6GJQsqaUBKTNV-1">
          <mxGeometry x="750" y="-560" width="530" height="100" as="geometry" />
        </mxCell>
        <mxCell id="TTTQ2_IeN3se4pq6Z3mo-22" value="Confrontation 2" style="text;html=1;align=center;verticalAlign=middle;resizable=0;points=[];autosize=1;fontSize=17;fontColor=#FF0000;" vertex="1" parent="WIyWlLk6GJQsqaUBKTNV-1">
          <mxGeometry x="105" y="-165" width="130" height="30" as="geometry" />
        </mxCell>
        <mxCell id="TTTQ2_IeN3se4pq6Z3mo-23" value="Confrontation&amp;nbsp; 3&lt;br&gt;" style="text;html=1;align=center;verticalAlign=middle;resizable=0;points=[];autosize=1;fontSize=17;fontColor=#FF0000;" vertex="1" parent="WIyWlLk6GJQsqaUBKTNV-1">
          <mxGeometry x="960" y="-600" width="140" height="30" as="geometry" />
        </mxCell>
        <mxCell id="TTTQ2_IeN3se4pq6Z3mo-35" style="edgeStyle=orthogonalEdgeStyle;rounded=0;orthogonalLoop=1;jettySize=auto;html=1;fontSize=17;fontColor=#FF0000;" edge="1" parent="WIyWlLk6GJQsqaUBKTNV-1" source="TTTQ2_IeN3se4pq6Z3mo-29" target="TTTQ2_IeN3se4pq6Z3mo-33">
          <mxGeometry relative="1" as="geometry">
            <mxPoint x="1950" y="-840" as="targetPoint" />
            <Array as="points">
              <mxPoint x="2200" y="-640" />
            </Array>
          </mxGeometry>
        </mxCell>
        <mxCell id="TTTQ2_IeN3se4pq6Z3mo-37" style="edgeStyle=orthogonalEdgeStyle;rounded=0;orthogonalLoop=1;jettySize=auto;html=1;fontSize=17;fontColor=#FF0000;" edge="1" parent="WIyWlLk6GJQsqaUBKTNV-1" source="TTTQ2_IeN3se4pq6Z3mo-29" target="TTTQ2_IeN3se4pq6Z3mo-36">
          <mxGeometry relative="1" as="geometry" />
        </mxCell>
        <mxCell id="TTTQ2_IeN3se4pq6Z3mo-40" style="edgeStyle=orthogonalEdgeStyle;rounded=0;orthogonalLoop=1;jettySize=auto;html=1;entryX=0;entryY=0.5;entryDx=0;entryDy=0;fontSize=17;fontColor=#FF0000;" edge="1" parent="WIyWlLk6GJQsqaUBKTNV-1" source="TTTQ2_IeN3se4pq6Z3mo-29" target="TTTQ2_IeN3se4pq6Z3mo-39">
          <mxGeometry relative="1" as="geometry" />
        </mxCell>
        <mxCell id="TTTQ2_IeN3se4pq6Z3mo-29" value="&lt;font color=&quot;#000000&quot; style=&quot;font-size: 12px&quot;&gt;&lt;span&gt;&amp;nbsp;&lt;br&gt;&lt;/span&gt;&lt;br&gt;I need to run but where?&lt;br&gt;&lt;br&gt;1. the forest to the right.&lt;br&gt;2. off a cliff into a river on the left&lt;br&gt;3. His car&lt;br&gt;&lt;br&gt;&lt;br&gt;&lt;/font&gt;" style="rounded=1;whiteSpace=wrap;html=1;shadow=0;glass=0;sketch=0;strokeWidth=2;fontSize=17;autosize=1;labelPosition=center;verticalLabelPosition=middle;align=center;verticalAlign=middle;textDirection=ltr;fillColor=#dae8fc;strokeColor=#6c8ebf;" vertex="1" parent="WIyWlLk6GJQsqaUBKTNV-1">
          <mxGeometry x="1520" y="-580" width="190" height="190" as="geometry" />
        </mxCell>
        <mxCell id="TTTQ2_IeN3se4pq6Z3mo-31" value="Fail 1" style="text;html=1;align=center;verticalAlign=middle;resizable=0;points=[];autosize=1;fontSize=17;fontColor=#FF0000;" vertex="1" parent="WIyWlLk6GJQsqaUBKTNV-1">
          <mxGeometry x="1000" y="-340" width="60" height="30" as="geometry" />
        </mxCell>
        <mxCell id="TTTQ2_IeN3se4pq6Z3mo-32" value="Confrontation 4" style="text;html=1;align=center;verticalAlign=middle;resizable=0;points=[];autosize=1;fontSize=17;fontColor=#FF0000;" vertex="1" parent="WIyWlLk6GJQsqaUBKTNV-1">
          <mxGeometry x="1535" y="-695" width="130" height="30" as="geometry" />
        </mxCell>
        <mxCell id="TTTQ2_IeN3se4pq6Z3mo-51" style="edgeStyle=orthogonalEdgeStyle;rounded=0;orthogonalLoop=1;jettySize=auto;html=1;entryX=0.045;entryY=0.875;entryDx=0;entryDy=0;entryPerimeter=0;fontSize=17;fontColor=#FF0000;exitX=1.005;exitY=0.896;exitDx=0;exitDy=0;exitPerimeter=0;" edge="1" parent="WIyWlLk6GJQsqaUBKTNV-1" source="TTTQ2_IeN3se4pq6Z3mo-33" target="TTTQ2_IeN3se4pq6Z3mo-50">
          <mxGeometry relative="1" as="geometry" />
        </mxCell>
        <mxCell id="TTTQ2_IeN3se4pq6Z3mo-52" style="edgeStyle=orthogonalEdgeStyle;rounded=0;orthogonalLoop=1;jettySize=auto;html=1;entryX=0;entryY=0.25;entryDx=0;entryDy=0;fontSize=17;fontColor=#FF0000;exitX=1.002;exitY=0.087;exitDx=0;exitDy=0;exitPerimeter=0;" edge="1" parent="WIyWlLk6GJQsqaUBKTNV-1" source="TTTQ2_IeN3se4pq6Z3mo-33" target="TTTQ2_IeN3se4pq6Z3mo-48">
          <mxGeometry relative="1" as="geometry" />
        </mxCell>
        <mxCell id="TTTQ2_IeN3se4pq6Z3mo-59" style="edgeStyle=orthogonalEdgeStyle;rounded=0;orthogonalLoop=1;jettySize=auto;html=1;entryX=0;entryY=0.5;entryDx=0;entryDy=0;fontSize=17;fontColor=#FF0000;" edge="1" parent="WIyWlLk6GJQsqaUBKTNV-1" source="TTTQ2_IeN3se4pq6Z3mo-33" target="TTTQ2_IeN3se4pq6Z3mo-58">
          <mxGeometry relative="1" as="geometry" />
        </mxCell>
        <mxCell id="TTTQ2_IeN3se4pq6Z3mo-33" value="&lt;font color=&quot;#000000&quot;&gt;The forest is dense, I can make out a cabin off in the distance.&lt;br&gt;&lt;br&gt;1. See if anyone is home.&lt;br&gt;2. Find Somewhere to Hide&lt;br&gt;3. make like forest gump and keep runnin.&lt;br&gt;&lt;/font&gt;" style="rounded=0;whiteSpace=wrap;html=1;shadow=0;glass=0;sketch=0;strokeWidth=2;fontSize=17;fillColor=#dae8fc;strokeColor=#6c8ebf;" vertex="1" parent="WIyWlLk6GJQsqaUBKTNV-1">
          <mxGeometry x="1960" y="-890" width="480" height="170" as="geometry" />
        </mxCell>
        <mxCell id="TTTQ2_IeN3se4pq6Z3mo-34" value="Confrontation 5" style="text;html=1;align=center;verticalAlign=middle;resizable=0;points=[];autosize=1;fontSize=17;fontColor=#FF0000;" vertex="1" parent="WIyWlLk6GJQsqaUBKTNV-1">
          <mxGeometry x="2225" y="-925" width="130" height="30" as="geometry" />
        </mxCell>
        <mxCell id="TTTQ2_IeN3se4pq6Z3mo-36" value="xxxxx YOU ARE DEAD xxxxx&lt;br&gt;&lt;font color=&quot;#000000&quot;&gt;shallow water no diving....&lt;br&gt;&lt;/font&gt;&lt;font color=&quot;#330000&quot;&gt;where is the life guard when you need one...&lt;br&gt;At least he didn&#39;t kill me!&amp;nbsp;&lt;br&gt;&lt;br&gt;&lt;/font&gt;1. Play again?&lt;font color=&quot;#330000&quot;&gt;&lt;br&gt;&lt;/font&gt;" style="rounded=0;whiteSpace=wrap;html=1;shadow=0;glass=0;sketch=0;strokeWidth=2;fontSize=17;fillColor=#f8cecc;strokeColor=#b85450;" vertex="1" parent="WIyWlLk6GJQsqaUBKTNV-1">
          <mxGeometry x="2090" y="-620" width="370" height="220" as="geometry" />
        </mxCell>
        <mxCell id="TTTQ2_IeN3se4pq6Z3mo-38" value="Fail 2" style="text;html=1;align=center;verticalAlign=middle;resizable=0;points=[];autosize=1;fontSize=17;fontColor=#FF0000;" vertex="1" parent="WIyWlLk6GJQsqaUBKTNV-1">
          <mxGeometry x="2255" y="-665" width="60" height="30" as="geometry" />
        </mxCell>
        <mxCell id="TTTQ2_IeN3se4pq6Z3mo-54" style="edgeStyle=orthogonalEdgeStyle;rounded=0;orthogonalLoop=1;jettySize=auto;html=1;entryX=0;entryY=0;entryDx=0;entryDy=0;fontSize=17;fontColor=#FF0000;" edge="1" parent="WIyWlLk6GJQsqaUBKTNV-1" target="TTTQ2_IeN3se4pq6Z3mo-53">
          <mxGeometry relative="1" as="geometry">
            <mxPoint x="2470" y="-340" as="sourcePoint" />
          </mxGeometry>
        </mxCell>
        <mxCell id="TTTQ2_IeN3se4pq6Z3mo-56" style="edgeStyle=orthogonalEdgeStyle;rounded=0;orthogonalLoop=1;jettySize=auto;html=1;fontSize=17;fontColor=#FF0000;" edge="1" parent="WIyWlLk6GJQsqaUBKTNV-1" source="TTTQ2_IeN3se4pq6Z3mo-39" target="TTTQ2_IeN3se4pq6Z3mo-55">
          <mxGeometry relative="1" as="geometry" />
        </mxCell>
        <mxCell id="TTTQ2_IeN3se4pq6Z3mo-39" value="&lt;font color=&quot;#000000&quot;&gt;Lucky you his keys are still in the ignition.&lt;br&gt;&lt;br&gt;1. Go home.&lt;br&gt;2. Go hunting...&lt;br&gt;&lt;/font&gt;" style="rounded=0;whiteSpace=wrap;html=1;shadow=0;glass=0;sketch=0;strokeWidth=2;fontSize=17;fillColor=#dae8fc;strokeColor=#6c8ebf;" vertex="1" parent="WIyWlLk6GJQsqaUBKTNV-1">
          <mxGeometry x="2115" y="-350" width="350" height="90" as="geometry" />
        </mxCell>
        <mxCell id="TTTQ2_IeN3se4pq6Z3mo-41" value="Confrontation 6" style="text;html=1;align=center;verticalAlign=middle;resizable=0;points=[];autosize=1;fontSize=17;fontColor=#FF0000;" vertex="1" parent="WIyWlLk6GJQsqaUBKTNV-1">
          <mxGeometry x="2175" y="-395" width="130" height="30" as="geometry" />
        </mxCell>
        <mxCell id="TTTQ2_IeN3se4pq6Z3mo-63" value="+++++++" style="edgeStyle=orthogonalEdgeStyle;rounded=0;orthogonalLoop=1;jettySize=auto;html=1;entryX=-0.003;entryY=0.602;entryDx=0;entryDy=0;entryPerimeter=0;fontSize=17;fontColor=#FF0000;exitX=1;exitY=0.75;exitDx=0;exitDy=0;" edge="1" parent="WIyWlLk6GJQsqaUBKTNV-1" source="TTTQ2_IeN3se4pq6Z3mo-42" target="TTTQ2_IeN3se4pq6Z3mo-57">
          <mxGeometry x="-0.3447" y="77" relative="1" as="geometry">
            <mxPoint as="offset" />
          </mxGeometry>
        </mxCell>
        <mxCell id="TTTQ2_IeN3se4pq6Z3mo-65" style="edgeStyle=orthogonalEdgeStyle;rounded=0;orthogonalLoop=1;jettySize=auto;html=1;entryX=0;entryY=0.25;entryDx=0;entryDy=0;fontSize=17;fontColor=#FF0000;" edge="1" parent="WIyWlLk6GJQsqaUBKTNV-1" source="TTTQ2_IeN3se4pq6Z3mo-42" target="TTTQ2_IeN3se4pq6Z3mo-64">
          <mxGeometry relative="1" as="geometry" />
        </mxCell>
        <mxCell id="TTTQ2_IeN3se4pq6Z3mo-66" style="edgeStyle=orthogonalEdgeStyle;rounded=0;orthogonalLoop=1;jettySize=auto;html=1;fontSize=17;fontColor=#FF0000;" edge="1" parent="WIyWlLk6GJQsqaUBKTNV-1" source="TTTQ2_IeN3se4pq6Z3mo-42" target="TTTQ2_IeN3se4pq6Z3mo-49">
          <mxGeometry relative="1" as="geometry" />
        </mxCell>
        <mxCell id="TTTQ2_IeN3se4pq6Z3mo-42" value="&lt;font color=&quot;#000000&quot;&gt;The forest is dense, I can make out a cabin off in the distance.&lt;br&gt;&lt;br&gt;1. See if anyone is home.&lt;br&gt;2. Find Somewhere to Hide&lt;br&gt;3. make like forest gump and keep runnin.&lt;br&gt;&lt;/font&gt;" style="rounded=0;whiteSpace=wrap;html=1;shadow=0;glass=0;sketch=0;strokeWidth=2;fontSize=17;fillColor=#dae8fc;strokeColor=#6c8ebf;" vertex="1" parent="WIyWlLk6GJQsqaUBKTNV-1">
          <mxGeometry x="-100" y="365" width="480" height="170" as="geometry" />
        </mxCell>
        <mxCell id="TTTQ2_IeN3se4pq6Z3mo-44" value="xxxxx YOU ARE DEAD xxxxx&lt;br&gt;&lt;font color=&quot;#000000&quot;&gt;shallow water no diving....&lt;br&gt;&lt;/font&gt;&lt;font color=&quot;#330000&quot;&gt;where is the life guard when you need one...&lt;br&gt;At least he didn&#39;t kill me!&amp;nbsp;&lt;br&gt;&lt;br&gt;&lt;/font&gt;1. Play again?&lt;font color=&quot;#330000&quot;&gt;&lt;br&gt;&lt;/font&gt;" style="rounded=0;whiteSpace=wrap;html=1;shadow=0;glass=0;sketch=0;strokeWidth=2;fontSize=17;fillColor=#f8cecc;strokeColor=#b85450;" vertex="1" parent="WIyWlLk6GJQsqaUBKTNV-1">
          <mxGeometry x="-60" y="600" width="370" height="220" as="geometry" />
        </mxCell>
        <mxCell id="TTTQ2_IeN3se4pq6Z3mo-46" value="Flight 1" style="text;html=1;align=center;verticalAlign=middle;resizable=0;points=[];autosize=1;fontSize=17;fontColor=#FF0000;" vertex="1" parent="WIyWlLk6GJQsqaUBKTNV-1">
          <mxGeometry x="55" y="320" width="70" height="20" as="geometry" />
        </mxCell>
        <mxCell id="TTTQ2_IeN3se4pq6Z3mo-47" value="Fail 2" style="text;html=1;align=center;verticalAlign=middle;resizable=0;points=[];autosize=1;fontSize=17;fontColor=#FF0000;" vertex="1" parent="WIyWlLk6GJQsqaUBKTNV-1">
          <mxGeometry x="60" y="565" width="60" height="30" as="geometry" />
        </mxCell>
        <mxCell id="TTTQ2_IeN3se4pq6Z3mo-60" style="edgeStyle=orthogonalEdgeStyle;rounded=0;orthogonalLoop=1;jettySize=auto;html=1;fontSize=17;fontColor=#FF0000;" edge="1" parent="WIyWlLk6GJQsqaUBKTNV-1" source="TTTQ2_IeN3se4pq6Z3mo-48" target="TTTQ2_IeN3se4pq6Z3mo-61">
          <mxGeometry relative="1" as="geometry">
            <mxPoint x="3120" y="-830" as="targetPoint" />
          </mxGeometry>
        </mxCell>
        <mxCell id="TTTQ2_IeN3se4pq6Z3mo-62" style="edgeStyle=orthogonalEdgeStyle;rounded=0;orthogonalLoop=1;jettySize=auto;html=1;fontSize=17;fontColor=#FF0000;" edge="1" parent="WIyWlLk6GJQsqaUBKTNV-1" source="TTTQ2_IeN3se4pq6Z3mo-48" target="TTTQ2_IeN3se4pq6Z3mo-58">
          <mxGeometry relative="1" as="geometry" />
        </mxCell>
        <mxCell id="TTTQ2_IeN3se4pq6Z3mo-48" value="&lt;font color=&quot;#330000&quot;&gt;you know where he lives now..&lt;br&gt;weapons of murder covering every wall&lt;br&gt;&lt;br&gt;1.arm yourself and prepare for a fight&lt;br&gt;2. Leave out the back.&lt;/font&gt;" style="rounded=0;whiteSpace=wrap;html=1;shadow=0;glass=0;sketch=0;strokeWidth=2;fontSize=17;fillColor=#dae8fc;strokeColor=#6c8ebf;" vertex="1" parent="WIyWlLk6GJQsqaUBKTNV-1">
          <mxGeometry x="2680" y="-1180" width="360" height="200" as="geometry" />
        </mxCell>
        <mxCell id="TTTQ2_IeN3se4pq6Z3mo-67" style="edgeStyle=orthogonalEdgeStyle;rounded=0;orthogonalLoop=1;jettySize=auto;html=1;fontSize=17;fontColor=#FF0000;exitX=1;exitY=0.75;exitDx=0;exitDy=0;" edge="1" parent="WIyWlLk6GJQsqaUBKTNV-1" source="TTTQ2_IeN3se4pq6Z3mo-49" target="TTTQ2_IeN3se4pq6Z3mo-64">
          <mxGeometry relative="1" as="geometry" />
        </mxCell>
        <mxCell id="TTTQ2_IeN3se4pq6Z3mo-70" style="edgeStyle=orthogonalEdgeStyle;rounded=0;orthogonalLoop=1;jettySize=auto;html=1;fontSize=17;fontColor=#FF0000;" edge="1" parent="WIyWlLk6GJQsqaUBKTNV-1" source="TTTQ2_IeN3se4pq6Z3mo-49" target="TTTQ2_IeN3se4pq6Z3mo-69">
          <mxGeometry relative="1" as="geometry" />
        </mxCell>
        <mxCell id="TTTQ2_IeN3se4pq6Z3mo-49" value="&lt;font color=&quot;#330000&quot;&gt;you know where he lives now..&lt;br&gt;weapons of murder covering every wall&lt;br&gt;&lt;br&gt;1.arm yourself and prepare for a fight&lt;br&gt;2. Leave out the back.&lt;/font&gt;" style="rounded=0;whiteSpace=wrap;html=1;shadow=0;glass=0;sketch=0;strokeWidth=2;fontSize=17;fillColor=#dae8fc;strokeColor=#6c8ebf;" vertex="1" parent="WIyWlLk6GJQsqaUBKTNV-1">
          <mxGeometry x="590" y="165" width="360" height="200" as="geometry" />
        </mxCell>
        <mxCell id="TTTQ2_IeN3se4pq6Z3mo-50" value="&lt;span style=&quot;color: rgb(0 , 0 , 0)&quot;&gt;xxxxx YOU ARE DEAD xxxxx&lt;/span&gt;&lt;font color=&quot;#000000&quot;&gt;&lt;br&gt;Forest be home to many creatures.&lt;br&gt;You just ran into the wrong type.&lt;br&gt;&lt;br&gt;&lt;/font&gt;1. Play again?&lt;font color=&quot;#000000&quot;&gt;&lt;br&gt;&lt;/font&gt;" style="rounded=0;whiteSpace=wrap;html=1;shadow=0;glass=0;sketch=0;strokeWidth=2;fontSize=17;fillColor=#f8cecc;strokeColor=#b85450;" vertex="1" parent="WIyWlLk6GJQsqaUBKTNV-1">
          <mxGeometry x="2695" y="-740" width="330" height="160" as="geometry" />
        </mxCell>
        <mxCell id="TTTQ2_IeN3se4pq6Z3mo-53" value="&lt;span style=&quot;color: rgb(0 , 0 , 0)&quot;&gt;xxxxx YOU ARE DEAD xxxxx&lt;br&gt;He was already there waiting&lt;br&gt;&lt;br&gt;&lt;/span&gt;1. Play again?&lt;span style=&quot;color: rgb(0 , 0 , 0)&quot;&gt;&lt;br&gt;&lt;/span&gt;" style="rounded=0;whiteSpace=wrap;html=1;shadow=0;glass=0;sketch=0;strokeWidth=2;fontSize=17;fillColor=#f8cecc;strokeColor=#b85450;" vertex="1" parent="WIyWlLk6GJQsqaUBKTNV-1">
          <mxGeometry x="2710" y="-445" width="280" height="80" as="geometry" />
        </mxCell>
        <mxCell id="TTTQ2_IeN3se4pq6Z3mo-55" value="CONGRATULATIONS&amp;nbsp;&lt;br&gt;I run him over once, twice three times for good measure, am now able to go home and rest Easy&lt;br&gt;&lt;br&gt;1. Play again?&amp;nbsp;&amp;nbsp;" style="rounded=0;whiteSpace=wrap;html=1;shadow=0;glass=0;sketch=0;strokeWidth=2;fontSize=17;fillColor=#d5e8d4;strokeColor=#82b366;" vertex="1" parent="WIyWlLk6GJQsqaUBKTNV-1">
          <mxGeometry x="2665" y="-260" width="390" height="140" as="geometry" />
        </mxCell>
        <mxCell id="TTTQ2_IeN3se4pq6Z3mo-57" value="&lt;span style=&quot;color: rgb(0 , 0 , 0)&quot;&gt;xxxxx YOU ARE DEAD xxxxx&lt;/span&gt;&lt;font color=&quot;#000000&quot;&gt;&lt;br&gt;Forest be home to many creatures.&lt;br&gt;You just ran into the wrong type.&lt;br&gt;&lt;br&gt;&lt;/font&gt;1. Play again?&lt;font color=&quot;#000000&quot;&gt;&lt;br&gt;&lt;/font&gt;" style="rounded=0;whiteSpace=wrap;html=1;shadow=0;glass=0;sketch=0;strokeWidth=2;fontSize=17;fillColor=#f8cecc;strokeColor=#b85450;" vertex="1" parent="WIyWlLk6GJQsqaUBKTNV-1">
          <mxGeometry x="605" y="630" width="330" height="160" as="geometry" />
        </mxCell>
        <mxCell id="TTTQ2_IeN3se4pq6Z3mo-58" value="&lt;span style=&quot;color: rgb(0 , 0 , 0)&quot;&gt;xxxxx YOU ARE DEAD xxxxx&lt;br&gt;What Happened. I awake strapped to a table with a circular saw in my flesh.&lt;br&gt;&amp;nbsp;&amp;nbsp;&lt;br&gt;1. Play again?&lt;/span&gt;" style="rounded=0;whiteSpace=wrap;html=1;shadow=0;glass=0;sketch=0;strokeWidth=2;fontSize=17;fillColor=#f8cecc;strokeColor=#b85450;" vertex="1" parent="WIyWlLk6GJQsqaUBKTNV-1">
          <mxGeometry x="3290" y="-900" width="420" height="130" as="geometry" />
        </mxCell>
        <mxCell id="TTTQ2_IeN3se4pq6Z3mo-61" value="CONGRATULATIONS&amp;nbsp;&lt;br&gt;&lt;br&gt;He didn&#39;t stand a chance!&lt;br&gt;&lt;br&gt;&lt;span style=&quot;font-size: 17px&quot;&gt;1. Play again?&lt;/span&gt;&amp;nbsp;" style="rounded=0;whiteSpace=wrap;html=1;fillColor=#d5e8d4;strokeColor=#82b366;" vertex="1" parent="WIyWlLk6GJQsqaUBKTNV-1">
          <mxGeometry x="3400" y="-1270" width="390" height="130" as="geometry" />
        </mxCell>
        <mxCell id="TTTQ2_IeN3se4pq6Z3mo-64" value="&lt;span style=&quot;color: rgb(0 , 0 , 0)&quot;&gt;xxxxx YOU ARE DEAD xxxxx&lt;br&gt;What Happened. I awake strapped to a table with a circular saw in my flesh.&lt;br&gt;&amp;nbsp;&amp;nbsp;&lt;br&gt;1. Play again?&lt;/span&gt;" style="rounded=0;whiteSpace=wrap;html=1;shadow=0;glass=0;sketch=0;strokeWidth=2;fontSize=17;fillColor=#f8cecc;strokeColor=#b85450;" vertex="1" parent="WIyWlLk6GJQsqaUBKTNV-1">
          <mxGeometry x="1260" y="410" width="420" height="130" as="geometry" />
        </mxCell>
        <mxCell id="TTTQ2_IeN3se4pq6Z3mo-69" value="&lt;font color=&quot;#000000&quot;&gt;xxxxx YOU ARE DEAD xxxxx&lt;br&gt;forgot about my arm.....&lt;br&gt;&lt;br&gt;1. Play again?&lt;br&gt;&lt;/font&gt;" style="rounded=0;whiteSpace=wrap;html=1;shadow=0;glass=0;sketch=0;strokeWidth=2;fontSize=17;fillColor=#f8cecc;strokeColor=#b85450;" vertex="1" parent="WIyWlLk6GJQsqaUBKTNV-1">
          <mxGeometry x="1250" y="70" width="550" height="110" as="geometry" />
        </mxCell>
        <mxCell id="TTTQ2_IeN3se4pq6Z3mo-71" value="&lt;span style=&quot;color: rgb(0 , 0 , 0)&quot;&gt;xxxxx YOU ARE DEAD xxxxx&lt;br&gt;What Happened. I awake strapped to a table with a circular saw in my flesh.&lt;br&gt;&amp;nbsp;&amp;nbsp;&lt;br&gt;1. Play again?&lt;/span&gt;" style="rounded=0;whiteSpace=wrap;html=1;shadow=0;glass=0;sketch=0;strokeWidth=2;fontSize=17;fillColor=#f8cecc;strokeColor=#b85450;" vertex="1" parent="WIyWlLk6GJQsqaUBKTNV-1">
          <mxGeometry x="805" y="-295" width="420" height="130" as="geometry" />
        </mxCell>
        <mxCell id="TTTQ2_IeN3se4pq6Z3mo-73" value="Confrontation&amp;nbsp; 7" style="text;html=1;align=center;verticalAlign=middle;resizable=0;points=[];autosize=1;fontSize=17;fontColor=#FF0000;" vertex="1" parent="WIyWlLk6GJQsqaUBKTNV-1">
          <mxGeometry x="2750" y="-1225" width="140" height="30" as="geometry" />
        </mxCell>
        <mxCell id="TTTQ2_IeN3se4pq6Z3mo-74" value="Fail 3" style="text;html=1;align=center;verticalAlign=middle;resizable=0;points=[];autosize=1;fontSize=17;fontColor=#FF0000;" vertex="1" parent="WIyWlLk6GJQsqaUBKTNV-1">
          <mxGeometry x="2790" y="-775" width="60" height="30" as="geometry" />
        </mxCell>
        <mxCell id="TTTQ2_IeN3se4pq6Z3mo-75" value="Fail 4" style="text;html=1;align=center;verticalAlign=middle;resizable=0;points=[];autosize=1;fontSize=17;fontColor=#FF0000;" vertex="1" parent="WIyWlLk6GJQsqaUBKTNV-1">
          <mxGeometry x="2790" y="-475" width="60" height="30" as="geometry" />
        </mxCell>
        <mxCell id="TTTQ2_IeN3se4pq6Z3mo-76" value="Success&amp;nbsp; 1" style="text;html=1;align=center;verticalAlign=middle;resizable=0;points=[];autosize=1;fontSize=17;fontColor=#FF0000;" vertex="1" parent="WIyWlLk6GJQsqaUBKTNV-1">
          <mxGeometry x="2770" y="-285" width="100" height="30" as="geometry" />
        </mxCell>
        <mxCell id="TTTQ2_IeN3se4pq6Z3mo-77" value="Success 2" style="text;html=1;align=center;verticalAlign=middle;resizable=0;points=[];autosize=1;fontSize=17;fontColor=#FF0000;" vertex="1" parent="WIyWlLk6GJQsqaUBKTNV-1">
          <mxGeometry x="3505" y="-1295" width="90" height="30" as="geometry" />
        </mxCell>
        <mxCell id="TTTQ2_IeN3se4pq6Z3mo-78" value="Fail 1" style="text;html=1;align=center;verticalAlign=middle;resizable=0;points=[];autosize=1;fontSize=17;fontColor=#FF0000;" vertex="1" parent="WIyWlLk6GJQsqaUBKTNV-1">
          <mxGeometry x="3540" y="-925" width="60" height="30" as="geometry" />
        </mxCell>
        <mxCell id="TTTQ2_IeN3se4pq6Z3mo-79" value="Fail 3" style="text;html=1;align=center;verticalAlign=middle;resizable=0;points=[];autosize=1;fontSize=17;fontColor=#FF0000;" vertex="1" parent="WIyWlLk6GJQsqaUBKTNV-1">
          <mxGeometry x="690" y="585" width="60" height="30" as="geometry" />
        </mxCell>
        <mxCell id="TTTQ2_IeN3se4pq6Z3mo-80" value="Confrontation&amp;nbsp; 7" style="text;html=1;align=center;verticalAlign=middle;resizable=0;points=[];autosize=1;fontSize=17;fontColor=#FF0000;" vertex="1" parent="WIyWlLk6GJQsqaUBKTNV-1">
          <mxGeometry x="630" y="135" width="140" height="30" as="geometry" />
        </mxCell>
        <mxCell id="TTTQ2_IeN3se4pq6Z3mo-81" value="Fail 1" style="text;html=1;align=center;verticalAlign=middle;resizable=0;points=[];autosize=1;fontSize=17;fontColor=#FF0000;" vertex="1" parent="WIyWlLk6GJQsqaUBKTNV-1">
          <mxGeometry x="1500" y="375" width="60" height="30" as="geometry" />
        </mxCell>
        <mxCell id="TTTQ2_IeN3se4pq6Z3mo-82" value="Fail 5" style="text;html=1;align=center;verticalAlign=middle;resizable=0;points=[];autosize=1;fontSize=17;fontColor=#FF0000;" vertex="1" parent="WIyWlLk6GJQsqaUBKTNV-1">
          <mxGeometry x="1420" y="25" width="60" height="30" as="geometry" />
        </mxCell>
      </root>
    </mxGraphModel>
  </diagram>
</mxfile>
